<svg width="139" height="140" viewBox="0 0 139 140" fill="none" xmlns="http://www.w3.org/2000/svg">
<path d="M69.7835 137.567C107.219 137.567 137.567 107.219 137.567 69.7835C137.567 32.3477 107.219 2 69.7835 2C32.3477 2 2 32.3477 2 69.7835C2 107.219 32.3477 137.567 69.7835 137.567Z" fill="black" stroke="white" stroke-width="3.43111" stroke-miterlimit="10"/>
<path d="M21.9512 43.7627L22.561 42.8127C22.626 42.7104 22.7041 42.6435 22.7952 42.61C22.8863 42.5784 22.9811 42.571 23.0815 42.5896L27.9023 43.5786C28.0603 43.6103 28.2277 43.6512 28.408 43.7014C28.5883 43.7534 28.7743 43.811 28.9657 43.8761C28.672 43.5935 28.4303 43.3202 28.237 43.0562L25.3237 39.0925C25.2735 39.0237 25.2419 38.9364 25.2289 38.8341C25.2158 38.7319 25.2419 38.6296 25.3051 38.5311L25.9149 37.5811L30.6111 44.2033L29.9288 45.2686L21.9512 43.7646V43.7627Z" fill="white"/>
<path d="M29.3713 36.7773C29.626 36.4686 29.9049 36.2307 30.2098 36.0615C30.5147 35.8923 30.8326 35.7956 31.1598 35.7677C31.487 35.7417 31.8217 35.7882 32.1638 35.9072C32.5058 36.028 32.8386 36.2214 33.1621 36.4872C33.4893 36.7568 33.744 37.0468 33.9262 37.361C34.1084 37.6734 34.22 37.995 34.259 38.3241C34.2981 38.6531 34.2646 38.9841 34.1568 39.315C34.0489 39.6478 33.8686 39.9676 33.6158 40.2743C33.3611 40.5829 33.0822 40.8209 32.7754 40.9919C32.4687 41.163 32.1489 41.2597 31.818 41.2857C31.487 41.3117 31.1487 41.2652 30.8066 41.1463C30.4626 41.0273 30.128 40.8339 29.8026 40.5643C29.4791 40.2966 29.2263 40.0066 29.0441 39.6924C28.8619 39.3782 28.7541 39.0566 28.7188 38.7294C28.6834 38.4003 28.7188 38.0712 28.8284 37.7366C28.9363 37.4038 29.1185 37.0822 29.3713 36.7735V36.7773ZM32.8535 39.6459C33.1361 39.3038 33.2291 38.9543 33.1361 38.5992C33.0413 38.2441 32.7717 37.8835 32.3274 37.5172C31.883 37.151 31.4759 36.9539 31.1078 36.926C30.7397 36.8981 30.4143 37.0561 30.1317 37.4001C29.8454 37.7477 29.7506 38.1028 29.8473 38.4616C29.9439 38.8205 30.2154 39.183 30.656 39.5474C31.0966 39.9118 31.5038 40.107 31.8719 40.1312C32.24 40.1553 32.5672 39.9936 32.8554 39.6459H32.8535Z" fill="white"/>
<path d="M31.1757 31.3555L36.7011 36.7693L35.8013 37.6877L30.2759 32.2739L31.1757 31.3555Z" fill="white"/>
<path d="M34.8949 31.1235L37.1054 33.6984C37.3174 33.9457 37.5405 34.0888 37.771 34.126C38.0015 34.1632 38.2321 34.0832 38.4608 33.8862C38.6299 33.7411 38.7545 33.5682 38.8382 33.3675C38.9218 33.1667 38.972 32.9436 38.9906 32.6982L36.4752 29.7663L37.4512 28.9297L40.9297 32.9826L40.3329 33.4939C40.2065 33.6017 40.0726 33.6147 39.9313 33.5292L39.5855 33.2634C39.5744 33.4195 39.5521 33.572 39.5223 33.7188C39.4926 33.8657 39.448 34.007 39.3885 34.1427C39.329 34.2784 39.2528 34.4104 39.1598 34.5387C39.0668 34.667 38.9516 34.7878 38.8177 34.9031C38.5965 35.0927 38.3678 35.2229 38.1335 35.2935C37.8993 35.3642 37.665 35.3809 37.4326 35.3437C37.1984 35.3065 36.9716 35.2192 36.7503 35.0816C36.5291 34.944 36.3227 34.7618 36.1275 34.535L33.917 31.9601L34.893 31.1235H34.8949Z" fill="white"/>
<path d="M41.6789 32.4095L38.6968 27.9792L39.3493 27.5404C39.4869 27.4474 39.6226 27.4512 39.7528 27.5515L40.0614 27.8527C40.0893 27.7003 40.1265 27.5534 40.1767 27.4121C40.225 27.2708 40.2863 27.1351 40.3607 27.005C40.4351 26.8767 40.5262 26.754 40.6321 26.6406C40.74 26.5272 40.8683 26.4193 41.017 26.3189C41.2587 26.1553 41.5004 26.0531 41.7439 26.0085C41.9856 25.9638 42.2199 25.975 42.4448 26.0382C42.6698 26.1014 42.8836 26.2148 43.0881 26.3784C43.2907 26.5402 43.4766 26.7465 43.6421 26.9938L45.5403 29.8141L44.4732 30.5318L42.575 27.7114C42.3928 27.44 42.1901 27.2727 41.9652 27.2095C41.7402 27.1463 41.5022 27.1983 41.2512 27.3656C41.0672 27.4902 40.9222 27.6482 40.8181 27.8397C40.7121 28.0312 40.6377 28.2487 40.5894 28.4886L42.746 31.6937L41.6789 32.4113V32.4095Z" fill="white"/>
<path d="M47.9169 28.6367C47.5098 28.8561 47.1342 28.9082 46.7903 28.7966C46.4463 28.6851 46.1637 28.4248 45.9462 28.0177L44.5333 25.3907L44.0573 25.6472C43.996 25.6807 43.9328 25.6881 43.8677 25.6733C43.8026 25.6584 43.7469 25.6101 43.7041 25.5301L43.4624 25.0802L44.1521 24.5504L43.7004 23.1393C43.6799 23.0723 43.6818 23.0091 43.7078 22.9515C43.7338 22.8939 43.7803 22.8474 43.8472 22.8102L44.4347 22.4941L45.2305 23.974L46.4686 23.3084L46.9018 24.1153L45.6636 24.7809L47.0357 27.3298C47.1138 27.4766 47.2123 27.5715 47.3313 27.6142C47.4484 27.657 47.5693 27.6458 47.692 27.5808C47.7626 27.5436 47.8165 27.5027 47.8556 27.4599C47.8946 27.4172 47.9262 27.3781 47.9504 27.3409C47.9764 27.3037 47.9969 27.2684 48.0155 27.2368C48.0341 27.2052 48.0564 27.1829 48.0842 27.168C48.1177 27.1494 48.1493 27.1439 48.1809 27.1494C48.2107 27.155 48.2479 27.168 48.2906 27.1885L48.9264 27.5566C48.8353 27.7834 48.7015 27.9879 48.5249 28.1738C48.3482 28.3597 48.1456 28.514 47.9169 28.6367Z" fill="white"/>
<path d="M49.5009 21.814C49.8114 21.6839 50.1182 21.6133 50.4194 21.6021C50.7224 21.591 51.0069 21.6411 51.2764 21.7527C51.546 21.8642 51.7914 22.0353 52.0127 22.2677C52.2339 22.5001 52.4198 22.7938 52.5704 23.1489C52.6076 23.2382 52.6355 23.3144 52.6522 23.3776C52.6689 23.4408 52.6745 23.4929 52.6671 23.5356C52.6596 23.5784 52.6429 23.6137 52.6132 23.6434C52.5834 23.6732 52.5425 23.6992 52.4886 23.7215L49.447 25.0006C49.6943 25.4914 49.9862 25.8056 50.3227 25.9432C50.6592 26.0808 51.0217 26.0678 51.4121 25.9023C51.6036 25.8224 51.7598 25.7294 51.8807 25.6272C52.0015 25.5249 52.1019 25.4226 52.1818 25.326C52.2636 25.2274 52.3324 25.1401 52.3919 25.062C52.4514 24.9839 52.5183 24.93 52.5908 24.8984C52.6392 24.8779 52.6838 24.8705 52.7284 24.8742C52.7712 24.8779 52.8139 24.8928 52.853 24.917L53.3791 25.2033C53.3122 25.4115 53.2192 25.603 53.1003 25.7759C52.9813 25.9488 52.8455 26.1031 52.695 26.2407C52.5444 26.3782 52.3808 26.4972 52.2079 26.6013C52.035 26.7036 51.8621 26.7928 51.6892 26.8653C51.3471 27.0085 51.005 27.0866 50.6629 27.0959C50.3208 27.107 49.9936 27.0457 49.6831 26.9155C49.3727 26.7854 49.0845 26.5809 48.8224 26.3057C48.5602 26.0306 48.3371 25.6773 48.1568 25.2442C48.0155 24.9077 47.9374 24.5693 47.9207 24.2272C47.9058 23.8851 47.9523 23.5616 48.0638 23.2586C48.1754 22.9556 48.3501 22.6767 48.5881 22.4257C48.8279 22.1747 49.131 21.9721 49.4991 21.8178L49.5009 21.814ZM49.8821 22.6544C49.5363 22.7994 49.3076 23.0113 49.1942 23.2883C49.0808 23.5654 49.0733 23.8944 49.1682 24.2756L51.3954 23.3385C51.3303 23.1842 51.2485 23.0485 51.15 22.9314C51.0515 22.8124 50.9362 22.7213 50.8079 22.6544C50.6778 22.5893 50.5365 22.554 50.3803 22.5484C50.2242 22.5447 50.0587 22.58 49.8821 22.6525V22.6544Z" fill="white"/>
<path d="M54.92 19.8963C55.2435 19.8014 55.5558 19.7643 55.857 19.7884C56.1582 19.8107 56.4371 19.8925 56.6918 20.0338C56.9465 20.1733 57.1714 20.3722 57.3666 20.6269C57.5618 20.8816 57.7124 21.1958 57.8221 21.5639C57.85 21.6569 57.8686 21.7349 57.8779 21.8C57.8872 21.8632 57.8872 21.9171 57.876 21.958C57.8649 21.9989 57.8426 22.0324 57.811 22.0584C57.7794 22.0845 57.7347 22.1049 57.6771 22.1216L54.511 23.0549C54.7025 23.5699 54.9572 23.9139 55.2769 24.0886C55.5967 24.2615 55.9593 24.2894 56.3646 24.1686C56.5635 24.1091 56.7289 24.0366 56.8609 23.9455C56.9929 23.8562 57.1026 23.767 57.1956 23.6796C57.2867 23.5904 57.3666 23.5123 57.4354 23.4416C57.5024 23.371 57.5749 23.3245 57.6511 23.3022C57.7013 23.2873 57.7478 23.2855 57.7905 23.2948C57.8333 23.3041 57.8723 23.3227 57.9114 23.3524L58.404 23.6963C58.3148 23.8971 58.2014 24.0756 58.0638 24.2336C57.9262 24.3917 57.7738 24.5311 57.6083 24.6501C57.4429 24.7691 57.2681 24.8713 57.084 24.9531C56.9 25.0368 56.7196 25.1037 56.5393 25.1576C56.1824 25.2617 55.8347 25.3008 55.4926 25.2729C55.1524 25.245 54.8345 25.1483 54.5389 24.9847C54.2433 24.8211 53.9811 24.5869 53.7506 24.2838C53.5201 23.9808 53.3379 23.6052 53.2059 23.1553C53.1036 22.8058 53.0627 22.46 53.085 22.1198C53.1073 21.7777 53.191 21.4635 53.3341 21.1716C53.4773 20.8816 53.6837 20.625 53.9477 20.4019C54.2135 20.1788 54.537 20.0115 54.92 19.8981V19.8963ZM55.2044 20.7719C54.8456 20.8779 54.5928 21.0619 54.4496 21.3259C54.3065 21.5881 54.2619 21.9153 54.3158 22.3038L56.6323 21.6197C56.5858 21.4598 56.5189 21.3166 56.4333 21.1865C56.3478 21.0582 56.2456 20.9541 56.1247 20.8742C56.0039 20.7942 55.8663 20.744 55.7101 20.7217C55.5558 20.7013 55.3866 20.7161 55.2026 20.77L55.2044 20.7719Z" fill="white"/>
<path d="M59.3463 24.3291L58.3442 19.0826L59.086 18.9413C59.2162 18.9171 59.311 18.9227 59.3705 18.9617C59.43 18.9989 59.4802 19.0751 59.5192 19.1886L59.7163 19.8076C59.8427 19.4488 60.0138 19.1495 60.2294 18.9153C60.4451 18.6792 60.7109 18.5323 61.0251 18.4728C61.2835 18.4226 61.5104 18.4412 61.7037 18.5286L61.7204 19.5065C61.7204 19.5697 61.7074 19.618 61.6795 19.6496C61.6498 19.6812 61.607 19.7035 61.5494 19.7147C61.4974 19.724 61.4267 19.7258 61.3337 19.7184C61.2408 19.711 61.1199 19.7221 60.9749 19.75C60.7128 19.8002 60.5008 19.9155 60.341 20.0958C60.1811 20.2762 60.064 20.5197 59.9877 20.8227L60.6124 24.0893L59.35 24.3309L59.3463 24.3291Z" fill="white"/>
<path d="M64.1284 18.0139L65.1491 17.9879C65.2458 17.986 65.3276 18.0065 65.3964 18.0492C65.4633 18.092 65.5061 18.1496 65.5265 18.2184L66.365 21.0499C66.4115 21.2042 66.4486 21.3566 66.4784 21.5054C66.5081 21.6541 66.5379 21.8028 66.5658 21.9516C66.5992 21.801 66.6364 21.6504 66.6773 21.5016C66.7164 21.3511 66.7591 21.1967 66.8037 21.0406L67.6143 18.1552C67.6329 18.0845 67.6738 18.0269 67.7352 17.9804C67.7965 17.9339 67.869 17.9098 67.9527 17.9079L68.5197 17.893C68.6127 17.8912 68.6926 17.9116 68.7558 17.9544C68.8191 17.9972 68.8618 18.0548 68.886 18.1236L69.8341 21.0145C69.8825 21.1633 69.9271 21.3064 69.968 21.4459C70.0089 21.5853 70.048 21.7266 70.0851 21.8679C70.1056 21.7173 70.1279 21.5686 70.1539 21.418C70.1799 21.2674 70.2134 21.1131 70.2543 20.9513L70.9719 18.079C70.9868 18.0083 71.0277 17.9507 71.0928 17.9042C71.1579 17.8577 71.2341 17.8336 71.3196 17.8298L72.2919 17.8057L70.7377 23.1879L69.7021 23.2139C69.5906 23.2176 69.5088 23.1433 69.4567 22.9908L68.4156 19.9288C68.3822 19.8284 68.3505 19.728 68.3227 19.6258C68.2948 19.5235 68.2706 19.4231 68.2502 19.3227C68.2316 19.4268 68.213 19.5309 68.1907 19.6332C68.1684 19.7355 68.1442 19.8396 68.1144 19.9455L67.2202 23.0466C67.1756 23.2009 67.0845 23.279 66.945 23.2827L65.9615 23.3087L64.134 18.012L64.1284 18.0139Z" fill="white"/>
<path d="M74.5468 18.1207L74.1061 23.4434L72.8252 23.3374L73.2658 18.0147L74.5468 18.1207ZM74.8665 16.585C74.8572 16.6966 74.8256 16.797 74.7736 16.8899C74.7197 16.9829 74.6546 17.0628 74.5728 17.1298C74.4929 17.1967 74.3999 17.2469 74.2958 17.2822C74.1917 17.3175 74.082 17.3305 73.9686 17.3212C73.8589 17.312 73.7548 17.2822 73.66 17.2302C73.5651 17.1781 73.4833 17.113 73.4183 17.0349C73.3532 16.9569 73.3011 16.8676 73.2658 16.7672C73.2305 16.6668 73.2175 16.5609 73.2268 16.4512C73.2361 16.3378 73.2658 16.2318 73.3179 16.1351C73.3699 16.0384 73.435 15.9566 73.5131 15.8897C73.5912 15.8228 73.6823 15.7726 73.7845 15.7373C73.8868 15.7019 73.9927 15.6889 74.1043 15.6982C74.2177 15.7075 74.3237 15.7373 74.4203 15.7893C74.517 15.8414 74.5988 15.9064 74.6676 15.9845C74.7364 16.0626 74.7885 16.1556 74.8256 16.2578C74.8628 16.3619 74.8758 16.4716 74.8665 16.585Z" fill="white"/>
<path d="M77.0188 23.9074C76.5614 23.8386 76.2305 23.6564 76.0223 23.3589C75.814 23.0633 75.7452 22.6859 75.814 22.2304L76.2602 19.2818L75.7248 19.2C75.656 19.1889 75.6002 19.1591 75.5575 19.1071C75.5147 19.055 75.4998 18.9844 75.5129 18.8951L75.5891 18.3913L76.4592 18.3801L76.9444 16.9802C76.9686 16.9133 77.0076 16.8649 77.0634 16.8352C77.1192 16.8054 77.1842 16.7961 77.2605 16.8073L77.9186 16.9077L77.6676 18.5698L79.0564 18.7798L78.9188 19.6853L77.53 19.4752L77.0968 22.3364C77.0727 22.5019 77.0931 22.6357 77.1619 22.7417C77.2307 22.8458 77.333 22.909 77.4705 22.9313C77.5486 22.9425 77.6174 22.9443 77.6732 22.9313C77.729 22.9202 77.7792 22.9071 77.8219 22.8923C77.8647 22.8774 77.9019 22.8625 77.9372 22.8495C77.9707 22.8346 78.0023 22.8309 78.0339 22.8346C78.071 22.8402 78.1008 22.8551 78.1212 22.8774C78.1417 22.8997 78.164 22.9313 78.1863 22.9741L78.4726 23.6489C78.2644 23.7754 78.0339 23.859 77.781 23.9018C77.5282 23.9446 77.2735 23.9464 77.0169 23.9074H77.0188Z" fill="white"/>
<path d="M78.9141 24.1093L80.8234 16.6133L82.069 16.9312L81.3347 19.811C81.5857 19.6716 81.8459 19.573 82.1192 19.5173C82.3907 19.4615 82.69 19.4745 83.0172 19.5582C83.2998 19.6307 83.5378 19.7422 83.733 19.8928C83.9263 20.0434 84.0751 20.2256 84.1773 20.4357C84.2796 20.6458 84.3372 20.8819 84.3521 21.1403C84.3669 21.4006 84.3372 21.6739 84.2628 21.9639L83.4244 25.2583L82.1787 24.9404L83.0172 21.646C83.0971 21.3299 83.086 21.0659 82.9856 20.8558C82.8833 20.6458 82.6863 20.5026 82.3925 20.4282C82.1769 20.3743 81.9631 20.3706 81.7493 20.4208C81.5355 20.471 81.3235 20.5584 81.1134 20.6829L80.1597 24.4254L78.9141 24.1075V24.1093Z" fill="white"/>
<path d="M92.0255 28.8168L91.0383 28.3725C90.9267 28.3223 90.8486 28.2535 90.8022 28.1661C90.7557 28.0788 90.7352 27.9877 90.7408 27.891L90.8579 26.2605L88.0134 24.9814L86.8701 26.1508C86.8124 26.2122 86.7325 26.2568 86.6302 26.2828C86.5298 26.3089 86.4239 26.2977 86.316 26.2512L85.3232 25.805L91.1071 20.1514L92.4122 20.7389L92.0218 28.8168H92.0255ZM88.7478 24.2266L90.936 25.2101L91.1275 22.5515C91.1349 22.4325 91.1461 22.295 91.1628 22.1369C91.1796 21.9789 91.2019 21.8079 91.2298 21.6275C91.1126 21.7688 91.0011 21.899 90.897 22.0198C90.791 22.1407 90.6943 22.2429 90.6069 22.3284L88.7497 24.2266H88.7478Z" fill="white"/>
<path d="M93.6608 29.9188L92.4468 29.2105L96.2432 22.7109L97.4572 23.4193L93.6608 29.9188Z" fill="white"/>
<path d="M103.068 27.2337L102.421 28.1409L99.7047 26.2018L98.4907 27.9011L100.631 29.4293L100.004 30.3068L97.8641 28.7786L96.6259 30.5113L99.3421 32.4504L98.6914 33.3614L94.8281 30.6024L99.2027 24.4766L103.066 27.2355L103.068 27.2337Z" fill="white"/>
<path d="M106.414 32.0088C106.334 32.0404 106.265 32.0497 106.208 32.0404C106.15 32.0292 106.094 32.0013 106.042 31.9549C105.99 31.9084 105.951 31.8359 105.923 31.7373C105.895 31.6388 105.858 31.5254 105.815 31.399C105.773 31.2726 105.709 31.135 105.629 30.9881C105.548 30.8431 105.429 30.6981 105.269 30.5531C105.124 30.4229 104.982 30.3263 104.845 30.2649C104.707 30.2036 104.573 30.1701 104.443 30.1664C104.313 30.1627 104.192 30.1868 104.079 30.2407C103.966 30.2947 103.861 30.3727 103.768 30.4768C103.649 30.6088 103.588 30.7501 103.583 30.9045C103.577 31.0588 103.607 31.2205 103.672 31.3915C103.737 31.5626 103.824 31.7429 103.936 31.9307C104.047 32.1185 104.157 32.3137 104.269 32.5145C104.38 32.7153 104.479 32.9216 104.568 33.1354C104.655 33.3492 104.711 33.5649 104.73 33.7861C104.75 34.0074 104.722 34.2323 104.65 34.461C104.577 34.6897 104.436 34.9202 104.226 35.1526C103.997 35.4054 103.742 35.6025 103.456 35.7457C103.172 35.8888 102.872 35.9669 102.558 35.9799C102.244 35.9929 101.926 35.939 101.601 35.8163C101.275 35.6936 100.959 35.4928 100.651 35.2139C100.472 35.0541 100.314 34.8774 100.173 34.6878C100.032 34.4982 99.9107 34.2974 99.8103 34.091C99.7099 33.8828 99.6319 33.6727 99.5742 33.4589C99.5184 33.2451 99.485 33.0332 99.4775 32.8249L100.229 32.5981C100.29 32.587 100.351 32.5888 100.413 32.5981C100.474 32.6074 100.53 32.6372 100.58 32.6818C100.645 32.7394 100.69 32.8287 100.718 32.9495C100.745 33.0704 100.779 33.2079 100.824 33.3641C100.866 33.5203 100.933 33.6876 101.024 33.8642C101.114 34.0408 101.257 34.2174 101.45 34.3922C101.746 34.6599 102.039 34.7956 102.328 34.8031C102.616 34.8105 102.88 34.6804 103.118 34.4182C103.25 34.2714 103.322 34.1189 103.332 33.959C103.343 33.7991 103.315 33.6337 103.252 33.4626C103.187 33.2897 103.097 33.1131 102.982 32.9291C102.867 32.745 102.753 32.5572 102.64 32.3602C102.527 32.1631 102.426 31.9604 102.337 31.7485C102.248 31.5366 102.194 31.319 102.177 31.0941C102.16 30.8691 102.194 30.6367 102.277 30.3969C102.361 30.1571 102.517 29.9098 102.748 29.6532C102.932 29.4506 103.151 29.2889 103.406 29.168C103.661 29.0472 103.934 28.984 104.226 28.9747C104.516 28.9654 104.815 29.0193 105.124 29.1327C105.432 29.248 105.732 29.4357 106.022 29.6979C106.351 29.9953 106.609 30.3207 106.795 30.6758C106.981 31.0309 107.087 31.3878 107.115 31.7504L106.418 32.0106L106.414 32.0088Z" fill="white"/>
<path d="M111.872 35.948L111.038 36.6842L108.831 34.1818L107.265 35.5631L109.004 37.5338L108.195 38.2459L106.457 36.2752L104.86 37.6844L107.066 40.1868L106.228 40.9267L103.088 37.3665L108.732 32.3877L111.872 35.948Z" fill="white"/>
<path d="M111.062 44.7978C111.104 44.861 111.117 44.9317 111.099 45.0116L110.913 45.8036C110.428 45.7627 109.978 45.614 109.561 45.3574C109.145 45.1009 108.762 44.7142 108.41 44.1973C108.098 43.7344 107.895 43.2659 107.802 42.7881C107.711 42.3121 107.717 41.8474 107.821 41.3956C107.925 40.9438 108.126 40.5162 108.423 40.1109C108.721 39.7056 109.1 39.3487 109.563 39.0345C110.032 38.7166 110.513 38.5046 111.008 38.3968C111.502 38.289 111.986 38.2797 112.458 38.3708C112.93 38.4619 113.378 38.6496 113.8 38.9359C114.222 39.2223 114.594 39.6015 114.916 40.0775C115.228 40.5404 115.429 40.994 115.514 41.4421C115.6 41.8883 115.605 42.3177 115.529 42.7305L114.728 42.7063C114.678 42.7063 114.627 42.697 114.577 42.6784C114.527 42.6598 114.481 42.6189 114.438 42.5557C114.393 42.4888 114.373 42.4051 114.378 42.301C114.384 42.1969 114.378 42.0723 114.369 41.9236C114.358 41.7767 114.322 41.6038 114.265 41.4067C114.207 41.2097 114.094 40.9847 113.925 40.7356C113.726 40.4419 113.493 40.2076 113.224 40.031C112.956 39.8544 112.666 39.741 112.357 39.6926C112.049 39.6443 111.723 39.6629 111.385 39.7465C111.047 39.8321 110.708 39.9882 110.368 40.2169C110.017 40.4549 109.74 40.7151 109.533 40.9996C109.327 41.284 109.188 41.5741 109.117 41.8697C109.044 42.1653 109.037 42.4627 109.093 42.7583C109.148 43.0558 109.267 43.3365 109.446 43.6005C109.554 43.7586 109.658 43.8961 109.762 44.0114C109.866 44.1267 109.972 44.2271 110.084 44.3089C110.193 44.3907 110.31 44.4613 110.435 44.5171C110.56 44.5729 110.697 44.6193 110.846 44.6565C110.891 44.6677 110.931 44.6844 110.97 44.7049C111.008 44.7253 111.039 44.7551 111.063 44.7922L111.062 44.7978Z" fill="white"/>
<path d="M27.9816 90.9023L28.5784 91.8617C28.6416 91.9639 28.6695 92.0643 28.6602 92.161C28.6509 92.2577 28.6156 92.345 28.5561 92.4287L25.5908 96.3552C25.496 96.4835 25.3863 96.6192 25.2617 96.7586C25.139 96.8981 25.0051 97.0412 24.8639 97.1881C25.245 97.045 25.5964 96.9427 25.918 96.8814L30.7499 95.9574C30.8336 95.9425 30.9247 95.9499 31.0232 95.9834C31.1218 96.0168 31.2017 96.0838 31.263 96.1842L31.8598 97.1435L23.8618 98.5341L23.1943 97.4595L27.9835 90.9042L27.9816 90.9023Z" fill="white"/>
<path d="M31.4978 99.8866C31.747 100.199 31.9236 100.521 32.0258 100.855C32.1281 101.19 32.1597 101.519 32.1188 101.844C32.0779 102.17 31.9626 102.489 31.7767 102.798C31.5889 103.109 31.3324 103.395 31.0033 103.657C30.6724 103.921 30.3359 104.111 29.9919 104.226C29.648 104.341 29.3115 104.384 28.9806 104.354C28.6496 104.324 28.3336 104.224 28.0305 104.051C27.7275 103.878 27.4505 103.637 27.2013 103.324C26.9522 103.012 26.7756 102.688 26.6715 102.354C26.5674 102.019 26.5376 101.686 26.5804 101.357C26.6232 101.028 26.7384 100.707 26.9243 100.396C27.1102 100.084 27.3687 99.7974 27.6996 99.5315C28.0268 99.2694 28.3633 99.0816 28.7091 98.9664C29.0549 98.8511 29.3896 98.8121 29.7186 98.8455C30.0477 98.879 30.3638 98.9812 30.6668 99.156C30.9717 99.3308 31.2469 99.5725 31.4978 99.8848V99.8866ZM27.9748 102.707C28.2518 103.055 28.5753 103.216 28.9415 103.198C29.3078 103.177 29.7168 102.988 30.1648 102.627C30.6129 102.266 30.8899 101.909 30.9922 101.554C31.0944 101.199 31.007 100.848 30.73 100.5C30.4474 100.149 30.1221 99.9833 29.7502 100.004C29.3784 100.026 28.9694 100.216 28.5232 100.573C28.077 100.93 27.8019 101.287 27.7033 101.644C27.6029 101.999 27.694 102.354 27.9766 102.705L27.9748 102.707Z" fill="white"/>
<path d="M36.3918 101.933L30.7921 107.269L29.9053 106.338L35.505 101.002L36.3918 101.933Z" fill="white"/>
<path d="M36.4412 105.326L34.1953 107.869C33.9797 108.115 33.8681 108.353 33.8644 108.587C33.8588 108.821 33.9704 109.037 34.1953 109.238C34.3627 109.385 34.5504 109.485 34.7624 109.541C34.9743 109.597 35.2011 109.615 35.4465 109.6L38.0029 106.706L38.9659 107.557L35.4317 111.56L34.8423 111.039C34.7178 110.93 34.688 110.798 34.7512 110.647L34.9669 110.268C34.8107 110.277 34.6564 110.277 34.5077 110.268C34.3589 110.258 34.2121 110.234 34.0689 110.193C33.9258 110.152 33.7845 110.095 33.645 110.02C33.5056 109.946 33.368 109.849 33.236 109.732C33.0166 109.539 32.8567 109.331 32.7545 109.109C32.6522 108.888 32.6039 108.658 32.6076 108.422C32.6132 108.185 32.6671 107.947 32.7731 107.71C32.8791 107.472 33.0296 107.241 33.2286 107.018L35.4744 104.475L36.4375 105.326H36.4412Z" fill="white"/>
<path d="M36.8625 112.681L39.906 108.292L40.5511 108.74C40.6887 108.835 40.7333 108.961 40.6868 109.119L40.5195 109.517C40.6719 109.487 40.8225 109.469 40.9713 109.463C41.1219 109.458 41.2687 109.465 41.4175 109.487C41.5643 109.51 41.7112 109.549 41.8562 109.608C42.0012 109.668 42.1481 109.748 42.2968 109.85C42.5367 110.015 42.7207 110.205 42.849 110.413C42.9773 110.623 43.0535 110.845 43.0758 111.077C43.0981 111.309 43.0702 111.551 42.994 111.798C42.9178 112.046 42.7932 112.293 42.6222 112.538L40.685 115.331L39.629 114.598L41.5662 111.806C41.7521 111.538 41.8339 111.287 41.8116 111.055C41.7893 110.822 41.6536 110.62 41.4063 110.447C41.2241 110.32 41.0233 110.242 40.8077 110.214C40.5901 110.186 40.3615 110.194 40.1198 110.239L37.9185 113.412L36.8625 112.68V112.681Z" fill="white"/>
<path d="M43.5981 117.084C43.1946 116.859 42.9474 116.573 42.8563 116.222C42.7652 115.872 42.8321 115.495 43.0571 115.091L44.5072 112.485L44.035 112.221C43.9736 112.187 43.9327 112.139 43.9104 112.074C43.8881 112.011 43.8993 111.938 43.9439 111.86L44.1911 111.414L45.0092 111.708L45.9536 110.566C46.0001 110.512 46.054 110.481 46.1154 110.471C46.1786 110.462 46.2418 110.477 46.3087 110.514L46.8906 110.838L46.0726 112.306L47.3015 112.991L46.8553 113.792L45.6264 113.108L44.219 115.636C44.1372 115.781 44.1112 115.915 44.1391 116.038C44.167 116.16 44.2413 116.255 44.3622 116.322C44.4328 116.361 44.4942 116.385 44.5518 116.395C44.6076 116.404 44.6578 116.41 44.7043 116.411C44.7489 116.411 44.7898 116.411 44.827 116.411C44.8642 116.411 44.8958 116.417 44.9237 116.432C44.9571 116.45 44.9794 116.475 44.9924 116.502C45.0036 116.53 45.0129 116.569 45.0185 116.616L45.0519 117.348C44.8121 117.393 44.5667 117.393 44.3157 117.345C44.0647 117.296 43.8249 117.209 43.5981 117.083V117.084Z" fill="white"/>
<path d="M50.1625 114.17C50.4711 114.304 50.7332 114.478 50.9489 114.69C51.1645 114.902 51.3244 115.144 51.4304 115.415C51.5345 115.687 51.581 115.982 51.5643 116.304C51.5494 116.626 51.4639 116.962 51.3096 117.315C51.2705 117.405 51.2333 117.477 51.1999 117.533C51.1664 117.589 51.1311 117.628 51.0958 117.652C51.0604 117.676 51.0214 117.687 50.9805 117.687C50.9396 117.687 50.8912 117.674 50.8373 117.65L47.8125 116.328C47.6284 116.847 47.6024 117.275 47.7344 117.613C47.8664 117.951 48.1267 118.204 48.5153 118.375C48.7067 118.459 48.8797 118.509 49.0377 118.524C49.1957 118.539 49.337 118.543 49.4653 118.535C49.5936 118.528 49.7051 118.516 49.8018 118.505C49.8985 118.494 49.984 118.505 50.0584 118.537C50.1067 118.557 50.1439 118.585 50.1699 118.621C50.1959 118.654 50.2145 118.695 50.2257 118.741L50.3818 119.321C50.1848 119.416 49.9821 119.481 49.7758 119.513C49.5675 119.545 49.363 119.554 49.1585 119.539C48.954 119.524 48.7569 119.489 48.5617 119.435C48.3684 119.381 48.1843 119.316 48.0133 119.242C47.6731 119.093 47.3812 118.898 47.1376 118.658C46.8941 118.418 46.7137 118.139 46.5929 117.823C46.4739 117.507 46.4219 117.159 46.4404 116.78C46.459 116.401 46.5613 115.995 46.7491 115.566C46.8959 115.231 47.0856 114.941 47.3235 114.694C47.5597 114.447 47.8274 114.259 48.1248 114.129C48.4223 113.999 48.7439 113.936 49.0897 113.936C49.4355 113.936 49.7925 114.015 50.1587 114.175L50.1625 114.17ZM49.8167 115.023C49.4727 114.873 49.1622 114.852 48.8834 114.962C48.6045 115.071 48.3609 115.293 48.1509 115.624L50.3633 116.592C50.4302 116.44 50.4729 116.287 50.4897 116.133C50.5083 115.981 50.4953 115.834 50.4543 115.694C50.4134 115.555 50.3391 115.427 50.235 115.311C50.1309 115.196 49.9914 115.099 49.8167 115.023Z" fill="white"/>
<path d="M55.201 116.038C55.5226 116.138 55.8015 116.282 56.0413 116.467C56.2793 116.653 56.4652 116.876 56.6009 117.135C56.7348 117.393 56.8128 117.681 56.8333 118.003C56.8537 118.323 56.8073 118.669 56.692 119.035C56.6641 119.128 56.6344 119.204 56.6083 119.262C56.5804 119.321 56.5507 119.364 56.5191 119.392C56.4875 119.42 56.4503 119.436 56.4094 119.44C56.3685 119.444 56.3202 119.436 56.2625 119.42L53.1113 118.442C52.9848 118.977 53.0072 119.405 53.1763 119.726C53.3455 120.048 53.6318 120.271 54.0371 120.398C54.2361 120.459 54.4145 120.489 54.5726 120.489C54.7306 120.489 54.8737 120.474 54.9983 120.452C55.1229 120.429 55.2344 120.407 55.3292 120.385C55.4241 120.364 55.5114 120.364 55.5877 120.388C55.6379 120.403 55.6769 120.427 55.7085 120.459C55.7382 120.491 55.7624 120.528 55.7773 120.572L55.9967 121.13C55.8108 121.247 55.6174 121.333 55.4148 121.389C55.2121 121.444 55.0095 121.476 54.805 121.483C54.6004 121.491 54.3997 121.478 54.2007 121.446C54.0018 121.413 53.8122 121.37 53.6337 121.314C53.2786 121.205 52.9681 121.043 52.6985 120.831C52.4308 120.619 52.2189 120.362 52.0646 120.061C51.9103 119.76 51.821 119.422 51.7987 119.04C51.7764 118.659 51.8322 118.247 51.9716 117.8C52.0794 117.453 52.2375 117.142 52.4457 116.871C52.6539 116.599 52.8975 116.382 53.1782 116.22C53.4589 116.058 53.7713 115.958 54.1171 115.921C54.461 115.882 54.8235 115.921 55.2047 116.042L55.201 116.038ZM54.9537 116.925C54.5949 116.813 54.2844 116.828 54.0185 116.968C53.7527 117.107 53.5352 117.354 53.3641 117.707L55.6713 118.423C55.7215 118.263 55.7457 118.107 55.7457 117.953C55.7457 117.799 55.7178 117.655 55.662 117.522C55.6062 117.388 55.5189 117.269 55.4017 117.165C55.2846 117.06 55.1359 116.981 54.9537 116.925Z" fill="white"/>
<path d="M57.1887 122.208L58.2652 116.977L59.0051 117.129C59.1334 117.155 59.2189 117.198 59.2598 117.255C59.3007 117.313 59.3174 117.402 59.3119 117.521L59.2579 118.17C59.5108 117.886 59.7822 117.676 60.0723 117.54C60.3623 117.404 60.6635 117.369 60.9758 117.434C61.2342 117.488 61.4369 117.59 61.5819 117.744L61.2249 118.654C61.2026 118.713 61.171 118.752 61.132 118.771C61.0929 118.789 61.0446 118.793 60.987 118.78C60.9368 118.769 60.868 118.743 60.7862 118.702C60.7044 118.661 60.5872 118.624 60.4422 118.594C60.1801 118.54 59.9421 118.566 59.7246 118.672C59.5071 118.778 59.3063 118.957 59.1204 119.209L58.4492 122.467L57.1906 122.208H57.1887Z" fill="white"/>
<path d="M63.5226 118.07L64.5414 118.111C64.6381 118.115 64.7199 118.141 64.7831 118.189C64.8463 118.238 64.8872 118.295 64.9002 118.366L65.5528 121.247C65.5881 121.406 65.616 121.56 65.6364 121.709C65.6569 121.859 65.6755 122.01 65.6941 122.158C65.7387 122.012 65.7852 121.863 65.8335 121.716C65.8818 121.569 65.9339 121.419 65.9897 121.264L66.988 118.438C67.0122 118.37 67.055 118.314 67.12 118.271C67.1851 118.228 67.2576 118.21 67.3413 118.212L67.9083 118.234C68.0013 118.238 68.0793 118.264 68.1388 118.31C68.2002 118.358 68.2392 118.416 68.256 118.487L69.0145 121.433C69.0535 121.584 69.0889 121.731 69.1186 121.872C69.1502 122.013 69.18 122.157 69.2079 122.3C69.2376 122.151 69.2711 122.004 69.3064 121.855C69.3417 121.707 69.3845 121.554 69.4365 121.396L70.3401 118.578C70.3605 118.509 70.4033 118.453 70.4721 118.41C70.539 118.368 70.6171 118.349 70.7026 118.351L71.6749 118.39L69.773 123.661L68.7375 123.62C68.6259 123.616 68.5497 123.536 68.5069 123.382L67.6666 120.258C67.6387 120.156 67.6146 120.054 67.5923 119.952C67.5699 119.849 67.5532 119.745 67.5383 119.645C67.5142 119.747 67.4863 119.851 67.4584 119.952C67.4305 120.054 67.3989 120.154 67.3636 120.258L66.2685 123.294C66.2146 123.445 66.1179 123.517 65.9785 123.512L64.995 123.473L63.5151 118.068L63.5226 118.07Z" fill="white"/>
<path d="M73.6879 116.542C73.6954 116.653 73.6805 116.757 73.6415 116.858C73.6024 116.958 73.5485 117.047 73.4797 117.125C73.4109 117.204 73.3273 117.267 73.2287 117.317C73.132 117.367 73.0261 117.397 72.9108 117.404C72.7993 117.412 72.6933 117.397 72.5929 117.362C72.4906 117.324 72.4014 117.272 72.3233 117.205C72.2452 117.138 72.182 117.057 72.1318 116.964C72.0816 116.871 72.0537 116.767 72.0463 116.657C72.0389 116.544 72.0537 116.434 72.0891 116.33C72.1262 116.226 72.1783 116.136 72.2452 116.058C72.3122 115.98 72.394 115.917 72.4906 115.867C72.5873 115.817 72.6896 115.789 72.8011 115.781C72.9145 115.774 73.0242 115.787 73.1283 115.824C73.2324 115.861 73.3235 115.913 73.4016 115.98C73.4816 116.047 73.5466 116.131 73.5987 116.227C73.6507 116.324 73.6805 116.43 73.6879 116.545V116.542ZM73.6024 118.107L73.9668 123.435L72.684 123.523L72.3196 118.194L73.6024 118.107Z" fill="white"/>
<path d="M77.4184 123.128C76.961 123.191 76.5911 123.109 76.3085 122.882C76.0259 122.656 75.853 122.315 75.7898 121.858L75.3845 118.902L74.849 118.975C74.7803 118.984 74.7171 118.969 74.6613 118.932C74.6055 118.895 74.572 118.831 74.559 118.74L74.4902 118.235L75.3213 117.978L75.3919 116.498C75.3956 116.428 75.4217 116.37 75.4663 116.325C75.5109 116.281 75.5704 116.253 75.6466 116.243L76.3066 116.152L76.5353 117.818L77.9278 117.627L78.0524 118.534L76.6599 118.725L77.0521 121.592C77.0745 121.758 77.1339 121.88 77.2288 121.962C77.3236 122.044 77.4407 122.076 77.5783 122.057C77.6564 122.046 77.7214 122.027 77.7735 122.001C77.8237 121.975 77.8683 121.949 77.9055 121.923C77.9427 121.897 77.9743 121.873 78.004 121.849C78.0319 121.826 78.0617 121.812 78.0933 121.808C78.1305 121.802 78.1639 121.808 78.1899 121.823C78.216 121.838 78.2457 121.864 78.2792 121.897L78.7458 122.464C78.5822 122.644 78.3833 122.789 78.1546 122.903C77.9241 123.014 77.6805 123.089 77.4221 123.124L77.4184 123.128Z" fill="white"/>
<path d="M80.0265 122.646L78.2231 115.124L79.4744 114.824L80.1678 117.715C80.324 117.473 80.5099 117.265 80.7237 117.089C80.9375 116.912 81.2089 116.786 81.5362 116.706C81.8206 116.637 82.0827 116.626 82.3244 116.668C82.5661 116.711 82.7818 116.802 82.9714 116.942C83.1592 117.081 83.3209 117.262 83.4548 117.485C83.5887 117.708 83.6909 117.964 83.7597 118.254L84.5517 121.56L83.3005 121.859L82.5085 118.554C82.4323 118.236 82.3003 118.009 82.1125 117.869C81.9247 117.73 81.683 117.697 81.3893 117.767C81.1736 117.819 80.9821 117.916 80.8167 118.059C80.6512 118.202 80.5043 118.379 80.376 118.587L81.2759 122.343L80.0247 122.642L80.0265 122.646Z" fill="white"/>
<path d="M94.4403 117.714L93.4475 118.143C93.3359 118.192 93.2318 118.203 93.137 118.179C93.0403 118.155 92.9585 118.108 92.8916 118.037L91.7649 116.851L88.9037 118.09L88.9967 119.722C89.0023 119.806 88.9818 119.895 88.9335 119.988C88.8851 120.081 88.807 120.151 88.6973 120.198L87.699 120.629L87.4238 112.547L88.7382 111.979L94.4403 117.712V117.714ZM88.8405 117.039L91.0436 116.085L89.2086 114.152C89.1268 114.066 89.032 113.964 88.926 113.845C88.8201 113.726 88.7085 113.596 88.5951 113.453C88.6211 113.635 88.6416 113.804 88.6602 113.964C88.6788 114.122 88.6881 114.263 88.6936 114.386L88.8424 117.039H88.8405Z" fill="white"/>
<path d="M96.8003 116.286L95.577 116.977L91.8735 110.424L93.0969 109.732L96.8003 116.286Z" fill="white"/>
<path d="M98.1781 106.366L98.8121 107.281L96.0699 109.181L97.2579 110.897L99.4182 109.4L100.032 110.285L97.8714 111.782L99.0835 113.531L101.826 111.631L102.463 112.551L98.5611 115.255L94.2739 109.067L98.1763 106.364L98.1781 106.366Z" fill="white"/>
<path d="M102.718 104.231C102.74 104.312 102.742 104.383 102.725 104.439C102.708 104.495 102.673 104.547 102.621 104.593C102.569 104.64 102.493 104.669 102.392 104.686C102.292 104.703 102.175 104.725 102.043 104.753C101.911 104.781 101.768 104.827 101.613 104.891C101.459 104.954 101.301 105.056 101.139 105.199C100.992 105.327 100.881 105.456 100.804 105.586C100.726 105.716 100.678 105.844 100.659 105.973C100.641 106.101 100.65 106.224 100.691 106.344C100.732 106.463 100.797 106.575 100.888 106.681C101.005 106.815 101.139 106.893 101.292 106.915C101.444 106.939 101.609 106.928 101.786 106.884C101.963 106.839 102.152 106.772 102.353 106.685C102.554 106.597 102.758 106.51 102.972 106.422C103.184 106.335 103.402 106.261 103.623 106.198C103.844 106.134 104.067 106.106 104.289 106.112C104.512 106.118 104.731 106.17 104.95 106.27C105.168 106.369 105.382 106.536 105.586 106.772C105.811 107.029 105.977 107.306 106.084 107.605C106.192 107.904 106.235 108.211 106.213 108.525C106.19 108.839 106.099 109.15 105.939 109.457C105.78 109.765 105.543 110.055 105.231 110.33C105.051 110.488 104.857 110.626 104.653 110.745C104.447 110.864 104.235 110.961 104.017 111.035C103.8 111.109 103.58 111.163 103.361 111.195C103.141 111.226 102.928 111.234 102.719 111.217L102.582 110.444C102.578 110.382 102.586 110.321 102.604 110.262C102.623 110.202 102.656 110.15 102.706 110.105C102.771 110.048 102.866 110.012 102.989 109.999C103.112 109.986 103.253 109.968 103.413 109.942C103.573 109.918 103.746 109.869 103.933 109.801C104.119 109.732 104.311 109.611 104.506 109.44C104.805 109.176 104.976 108.903 105.015 108.616C105.054 108.33 104.958 108.053 104.725 107.787C104.595 107.638 104.452 107.549 104.294 107.521C104.136 107.493 103.969 107.501 103.79 107.544C103.612 107.588 103.424 107.655 103.229 107.748C103.034 107.841 102.831 107.932 102.625 108.021C102.418 108.111 102.203 108.189 101.983 108.252C101.762 108.317 101.539 108.343 101.314 108.334C101.089 108.324 100.86 108.263 100.632 108.153C100.403 108.044 100.174 107.858 99.9493 107.599C99.7689 107.393 99.6332 107.157 99.544 106.889C99.4547 106.621 99.4231 106.343 99.4473 106.053C99.4733 105.762 99.5607 105.472 99.7094 105.179C99.8582 104.887 100.081 104.61 100.375 104.351C100.71 104.058 101.063 103.84 101.437 103.697C101.81 103.554 102.178 103.491 102.541 103.504L102.719 104.227L102.718 104.231Z" fill="white"/>
<path d="M105.817 98.9014L106.643 99.6506L104.401 102.121L105.946 103.525L107.712 101.579L108.509 102.302L106.743 104.248L108.32 105.68L110.562 103.209L111.391 103.96L108.201 107.476L102.627 102.417L105.817 98.9014Z" fill="white"/>
<path d="M113.966 97.3825C114.009 97.3192 114.072 97.2821 114.152 97.2709L114.959 97.1612C115.095 97.6279 115.117 98.1019 115.028 98.5835C114.939 99.065 114.714 99.5614 114.357 100.073C114.037 100.53 113.671 100.889 113.26 101.145C112.849 101.402 112.412 101.562 111.953 101.627C111.494 101.692 111.021 101.658 110.538 101.526C110.055 101.394 109.584 101.17 109.125 100.85C108.66 100.526 108.29 100.153 108.011 99.7306C107.733 99.3085 107.552 98.8605 107.467 98.3864C107.383 97.9123 107.398 97.4271 107.513 96.9307C107.628 96.4343 107.852 95.9509 108.179 95.4806C108.499 95.0232 108.852 94.6737 109.237 94.432C109.621 94.1903 110.021 94.0323 110.434 93.9561L110.7 94.7127C110.718 94.7592 110.728 94.8094 110.728 94.8633C110.728 94.9172 110.707 94.9749 110.663 95.0381C110.616 95.1031 110.545 95.1533 110.445 95.185C110.347 95.2166 110.229 95.2649 110.097 95.33C109.964 95.3932 109.817 95.488 109.653 95.6126C109.489 95.7371 109.322 95.923 109.149 96.1722C108.947 96.4622 108.811 96.7652 108.742 97.0794C108.673 97.3936 108.671 97.7022 108.738 98.009C108.805 98.3157 108.937 98.6114 109.138 98.8977C109.339 99.184 109.607 99.4443 109.943 99.6785C110.291 99.9202 110.633 100.088 110.973 100.177C111.311 100.268 111.633 100.294 111.934 100.255C112.235 100.216 112.516 100.117 112.773 99.9574C113.029 99.7975 113.249 99.5874 113.433 99.3253C113.542 99.1691 113.632 99.0204 113.704 98.8828C113.775 98.7452 113.831 98.6095 113.868 98.4756C113.905 98.3436 113.927 98.2079 113.937 98.0722C113.944 97.9365 113.938 97.7915 113.92 97.6372C113.914 97.5907 113.914 97.5461 113.92 97.5052C113.925 97.4624 113.942 97.4234 113.968 97.3862L113.966 97.3825Z" fill="white"/>
<path d="M119.564 64.2412L122.192 69.0471L127 71.6778L122.192 74.3066L119.564 79.1144L116.935 74.3066L112.127 71.6778L116.935 69.0471L119.564 64.2412Z" fill="white"/>
<path d="M19.4366 64.2402L22.0673 69.0461L26.8732 71.6768L22.0673 74.3056L19.4366 79.1134L16.8078 74.3056L12 71.6768L16.8078 69.0461L19.4366 64.2402Z" fill="white"/>
<path fill-rule="evenodd" clip-rule="evenodd" d="M77.5611 53.3134C75.5434 51.2986 72.8079 50.1672 69.9557 50.1672C67.1035 50.1672 64.3678 51.2986 62.3503 53.3134C60.3326 55.3282 59.1996 58.0597 59.1996 60.9078C59.1996 63.7582 60.3326 66.4898 62.3503 68.5023C64.368 70.5171 67.1035 71.6484 69.9557 71.6484C72.8079 71.6484 75.5435 70.5171 77.5611 68.5023C79.5787 66.4896 80.7118 63.758 80.7118 60.9078C80.7118 58.0596 79.5787 55.328 77.5611 53.3134ZM69.9557 56.7388C70.6171 55.6053 71.8482 54.9282 73.1606 54.9782C75.2848 54.9782 77.0062 56.6971 77.0062 58.8182C77.0062 60.5683 76.3218 62.179 75.1199 63.8083C73.5822 65.7294 71.8503 67.4879 69.9557 69.0568C68.0611 67.4879 66.3292 65.7273 64.7914 63.8062C63.5916 62.1789 62.9052 60.5662 62.9052 58.816C62.9052 56.6949 64.6266 54.976 66.7507 54.976C68.0632 54.926 69.2963 55.6032 69.9557 56.7366V56.7388ZM70.59 78.106V87.1779L76.3739 92.9306V76.9224C75.3703 77.2682 74.4021 77.1266 73.1314 76.8411C72.3886 77.4453 71.5206 77.8788 70.59 78.106ZM63.5396 76.9225V92.9307L69.3214 87.1802L69.3235 78.1061C68.3928 77.879 67.5248 77.4456 66.782 76.8413C65.5113 77.1247 64.5433 77.2683 63.5396 76.9225ZM76.587 75.3827C75.8317 75.9557 74.9428 75.9474 73.7535 75.6807C72.7457 75.4557 72.9522 75.414 72.1072 76.0078C70.4296 77.1808 69.4823 77.185 67.8068 76.0078C66.9576 75.4119 67.1683 75.4556 66.1605 75.6807C63.6608 76.2391 63.0682 75.4265 61.8434 73.4971H61.8413C61.7411 73.3408 61.5784 73.2345 61.3927 73.2095C59.0745 72.8428 58.1627 72.4678 57.7433 70.0675C57.566 69.0487 57.6828 69.2258 56.8085 68.6715C55.0767 67.5735 54.7136 66.7047 55.1622 64.7024C55.3876 63.696 55.4293 63.9023 54.8347 63.0584C53.6599 61.3833 53.6599 60.4373 54.8347 58.7642C55.4314 57.9162 55.3876 58.1245 55.1622 57.1182C54.7136 55.1159 55.0767 54.2471 56.8085 53.149C57.6828 52.5948 57.566 52.7698 57.7433 51.753C58.0959 49.7361 58.7657 49.0694 60.7834 48.7173C61.8038 48.5381 61.6264 48.6568 62.1814 47.7838C63.2811 46.0545 64.1512 45.6919 66.1563 46.1399C67.1641 46.3649 66.9576 46.4066 67.8026 45.8128C69.4802 44.6397 70.4233 44.6335 72.103 45.8128C72.9522 46.4087 72.7415 46.365 73.7493 46.1399C75.7545 45.6919 76.6246 46.0545 77.7242 47.7838C78.2793 48.6568 78.104 48.5402 79.1222 48.7173C81.142 49.0694 81.8097 49.7361 82.1623 51.753C82.3397 52.7719 82.2229 52.5948 83.0971 53.149C84.829 54.2471 85.1921 55.1159 84.7434 57.1182C84.5181 58.1245 84.4763 57.9183 85.071 58.7642C86.2457 60.4373 86.2499 61.3833 85.071 63.0584C84.4742 63.9064 84.518 63.6981 84.7434 64.7024C85.2985 67.1818 84.5097 67.7756 82.5588 69.0132L82.563 69.0112C82.4065 69.1112 82.3001 69.2737 82.2729 69.4591C82.0998 70.5468 81.8953 71.5864 81.2735 72.2094C80.612 72.8699 79.6021 73.0199 78.4984 73.2116C78.3189 73.2428 78.1624 73.3491 78.0664 73.5033C77.6929 74.1825 77.2151 74.7993 76.6518 75.3327C76.6288 75.3473 76.6079 75.364 76.587 75.3827ZM69.956 48.8944C73.1463 48.8944 76.2072 50.1592 78.4651 52.4136C80.7207 54.666 81.9894 57.7225 81.9894 60.9084C81.9894 64.0963 80.7207 67.1529 78.4651 69.4054C76.2074 71.6598 73.1486 72.9245 69.956 72.9245C66.7656 72.9245 63.7047 71.6598 61.4468 69.4054C59.1912 67.153 57.9246 64.0965 57.9246 60.9084C57.9246 57.7226 59.1912 54.6661 61.4489 52.4136C63.7045 50.1592 66.7655 48.8944 69.956 48.8944Z" fill="white"/>
</svg>
